<?xml version="1.0" standalone="no"?>
<!DOCTYPE svg PUBLIC "-//W3C//DTD SVG 20010904//EN"
 "http://www.w3.org/TR/2001/REC-SVG-20010904/DTD/svg10.dtd">
<svg version="1.0" xmlns="http://www.w3.org/2000/svg"
 width="512.000000pt" height="512.000000pt" viewBox="0 0 512.000000 512.000000"
 preserveAspectRatio="xMidYMid meet">

<g transform="translate(0.000000,512.000000) scale(0.100000,-0.100000)"
fill="#000000" stroke="none">
<path d="M4 4513 c6 -19 906 -3922 906 -3929 0 -2 232 -4 515 -4 l516 0 8 23
c5 12 143 529 307 1149 186 702 302 1121 306 1110 5 -12 502 -1875 599 -2244
l10 -38 504 0 c332 0 506 3 510 10 4 6 213 887 466 1958 253 1071 462 1955
465 1965 5 16 -24 17 -524 17 l-530 0 -5 -22 c-3 -13 -96 -457 -207 -988 -111
-531 -204 -974 -207 -985 -5 -16 -244 913 -507 1968 l-6 27 -558 -2 -557 -3
-265 -992 c-146 -546 -268 -984 -271 -975 -3 9 -98 457 -210 995 l-203 977
-534 0 c-503 0 -533 -1 -528 -17z"/>
</g>
</svg>
