<?xml version="1.0" standalone="no"?>
<!DOCTYPE svg PUBLIC "-//W3C//DTD SVG 20010904//EN"
 "http://www.w3.org/TR/2001/REC-SVG-20010904/DTD/svg10.dtd">
<svg version="1.0" xmlns="http://www.w3.org/2000/svg"
 width="512.000000pt" height="512.000000pt" viewBox="0 0 512.000000 512.000000"
 preserveAspectRatio="xMidYMid meet">

<g transform="translate(0.000000,512.000000) scale(0.100000,-0.100000)"
fill="#000000" stroke="none">
<path d="M1613 3875 c39 -223 261 -1421 264 -1425 2 -2 26 18 53 45 l49 50 85
390 c47 215 88 397 90 406 2 11 -91 111 -271 290 -229 228 -274 269 -270 244z"/>
<path d="M2843 3880 c93 -418 329 -1465 331 -1467 6 -6 86 87 86 99 0 7 -21
-8 -47 -32 l-48 -45 49 52 49 52 74 398 73 398 -286 285 c-197 196 -285 277
-281 260z"/>
<path d="M3880 2558 l-285 -1343 -343 -3 c-188 -1 -342 1 -342 5 0 8 -351
1507 -353 1510 -1 1 -81 -340 -176 -758 l-175 -759 -340 0 -341 -1 610 -605
610 -604 785 0 785 1 402 401 402 402 1 1075 0 1075 -472 473 c-260 260 -475
473 -478 473 -3 0 -134 -604 -290 -1342z m1226 -1704 c-3 -21 -824 -841 -843
-841 -8 0 178 193 414 429 235 235 429 428 430 428 0 0 0 -7 -1 -16z m4 -47
c0 -1 -181 -182 -402 -402 l-403 -400 400 403 c372 374 405 406 405 399z"/>
<path d="M4680 433 l-415 -418 418 415 c388 386 421 420 414 420 -1 0 -189
-188 -417 -417z"/>
<path d="M1921 2476 c-24 -24 -42 -49 -40 -55 3 -7 24 8 48 33 24 24 42 49 40
55 -3 7 -24 -8 -48 -33z"/>
</g>
</svg>
